<?xml version="1.0" encoding="UTF-8"?>
<svg xmlns="http://www.w3.org/2000/svg" version="1.1" width="100" height="100" viewBox="0 0 100 100"><rect x="0" y="0" width="100" height="100" fill="#ffffff"/><g transform="scale(2.439)"><g transform="translate(0,0)"><path fill-rule="evenodd" d="M8 0L8 1L9 1L9 2L8 2L8 5L9 5L9 6L8 6L8 7L9 7L9 6L10 6L10 7L11 7L11 5L12 5L12 9L13 9L13 11L14 11L14 10L15 10L15 8L14 8L14 9L13 9L13 6L14 6L14 7L15 7L15 5L16 5L16 7L17 7L17 9L16 9L16 12L14 12L14 14L16 14L16 13L17 13L17 15L15 15L15 16L17 16L17 15L18 15L18 14L19 14L19 16L21 16L21 17L22 17L22 16L23 16L23 18L22 18L22 19L23 19L23 20L20 20L20 19L16 19L16 17L15 17L15 21L14 21L14 20L13 20L13 21L14 21L14 22L15 22L15 21L16 21L16 23L11 23L11 22L10 22L10 21L11 21L11 20L10 20L10 19L11 19L11 18L12 18L12 17L13 17L13 18L14 18L14 16L13 16L13 14L12 14L12 13L11 13L11 12L10 12L10 13L9 13L9 15L11 15L11 14L12 14L12 16L8 16L8 15L7 15L7 14L4 14L4 13L5 13L5 12L3 12L3 10L4 10L4 11L5 11L5 10L4 10L4 8L0 8L0 9L1 9L1 10L0 10L0 12L1 12L1 11L2 11L2 12L3 12L3 13L2 13L2 15L3 15L3 14L4 14L4 15L7 15L7 16L6 16L6 17L5 17L5 16L4 16L4 19L5 19L5 18L6 18L6 19L9 19L9 20L10 20L10 21L8 21L8 20L6 20L6 21L8 21L8 23L7 23L7 22L6 22L6 23L5 23L5 24L4 24L4 25L2 25L2 24L3 24L3 23L4 23L4 22L5 22L5 21L4 21L4 20L3 20L3 18L2 18L2 20L3 20L3 21L1 21L1 20L0 20L0 21L1 21L1 22L0 22L0 23L2 23L2 24L1 24L1 26L0 26L0 29L1 29L1 28L2 28L2 29L3 29L3 30L4 30L4 31L2 31L2 32L1 32L1 33L2 33L2 32L3 32L3 33L7 33L7 32L4 32L4 31L5 31L5 30L6 30L6 31L7 31L7 30L6 30L6 29L9 29L9 30L11 30L11 29L13 29L13 28L14 28L14 27L15 27L15 26L17 26L17 25L19 25L19 27L20 27L20 28L21 28L21 29L22 29L22 27L23 27L23 25L22 25L22 26L21 26L21 24L20 24L20 25L19 25L19 23L18 23L18 24L17 24L17 21L18 21L18 20L19 20L19 22L20 22L20 23L21 23L21 22L20 22L20 21L22 21L22 23L24 23L24 24L25 24L25 25L24 25L24 26L25 26L25 27L24 27L24 28L25 28L25 29L23 29L23 30L25 30L25 31L26 31L26 32L28 32L28 31L29 31L29 33L28 33L28 35L29 35L29 33L30 33L30 34L31 34L31 35L30 35L30 36L28 36L28 37L27 37L27 38L26 38L26 36L27 36L27 35L25 35L25 34L24 34L24 33L25 33L25 32L24 32L24 31L22 31L22 30L20 30L20 31L19 31L19 32L18 32L18 30L17 30L17 32L16 32L16 29L15 29L15 30L14 30L14 31L15 31L15 32L16 32L16 36L17 36L17 37L15 37L15 38L17 38L17 39L18 39L18 38L19 38L19 40L18 40L18 41L19 41L19 40L21 40L21 41L22 41L22 38L23 38L23 37L22 37L22 38L21 38L21 34L22 34L22 35L24 35L24 36L25 36L25 38L24 38L24 39L23 39L23 41L24 41L24 40L25 40L25 41L26 41L26 40L27 40L27 38L28 38L28 37L29 37L29 38L30 38L30 39L31 39L31 40L30 40L30 41L31 41L31 40L32 40L32 41L35 41L35 40L36 40L36 41L38 41L38 40L36 40L36 38L39 38L39 41L40 41L40 39L41 39L41 37L39 37L39 36L38 36L38 34L39 34L39 33L40 33L40 34L41 34L41 33L40 33L40 32L41 32L41 31L40 31L40 32L39 32L39 31L38 31L38 30L39 30L39 29L40 29L40 28L41 28L41 23L40 23L40 22L41 22L41 20L40 20L40 15L41 15L41 13L39 13L39 12L37 12L37 14L35 14L35 13L34 13L34 11L33 11L33 10L36 10L36 11L37 11L37 10L38 10L38 11L40 11L40 12L41 12L41 11L40 11L40 10L41 10L41 8L40 8L40 9L39 9L39 8L36 8L36 9L34 9L34 8L33 8L33 3L32 3L32 2L33 2L33 1L32 1L32 0L31 0L31 1L30 1L30 3L29 3L29 0L28 0L28 4L27 4L27 5L24 5L24 7L23 7L23 6L22 6L22 8L21 8L21 5L20 5L20 2L21 2L21 1L22 1L22 0L21 0L21 1L20 1L20 0L19 0L19 1L17 1L17 0L16 0L16 1L17 1L17 2L18 2L18 3L15 3L15 4L14 4L14 5L13 5L13 4L12 4L12 1L11 1L11 0L10 0L10 1L9 1L9 0ZM14 0L14 2L13 2L13 3L14 3L14 2L15 2L15 0ZM23 0L23 3L22 3L22 4L23 4L23 3L24 3L24 0ZM10 1L10 2L9 2L9 3L11 3L11 1ZM19 1L19 2L20 2L20 1ZM31 1L31 2L32 2L32 1ZM25 2L25 4L26 4L26 2ZM18 3L18 4L16 4L16 5L17 5L17 7L18 7L18 6L19 6L19 8L18 8L18 9L17 9L17 10L18 10L18 11L17 11L17 12L18 12L18 11L20 11L20 12L19 12L19 13L20 13L20 15L21 15L21 14L22 14L22 13L23 13L23 16L24 16L24 17L25 17L25 16L26 16L26 15L25 15L25 14L27 14L27 15L28 15L28 16L27 16L27 17L26 17L26 19L24 19L24 18L23 18L23 19L24 19L24 20L23 20L23 21L24 21L24 20L25 20L25 21L27 21L27 22L26 22L26 23L27 23L27 24L26 24L26 25L25 25L25 26L26 26L26 27L25 27L25 28L26 28L26 31L27 31L27 29L28 29L28 28L29 28L29 29L30 29L30 31L32 31L32 30L36 30L36 32L37 32L37 33L38 33L38 31L37 31L37 29L39 29L39 27L37 27L37 26L40 26L40 25L37 25L37 23L36 23L36 21L35 21L35 23L36 23L36 24L34 24L34 23L33 23L33 22L34 22L34 20L36 20L36 19L37 19L37 21L38 21L38 22L40 22L40 20L39 20L39 21L38 21L38 19L39 19L39 15L37 15L37 16L38 16L38 18L37 18L37 17L36 17L36 19L34 19L34 20L33 20L33 18L35 18L35 15L34 15L34 14L33 14L33 11L32 11L32 10L33 10L33 9L32 9L32 10L31 10L31 7L32 7L32 6L31 6L31 5L29 5L29 4L28 4L28 5L27 5L27 7L26 7L26 6L25 6L25 9L24 9L24 8L22 8L22 9L24 9L24 10L26 10L26 11L28 11L28 12L26 12L26 13L25 13L25 11L23 11L23 10L21 10L21 9L20 9L20 10L19 10L19 8L20 8L20 6L19 6L19 3ZM10 4L10 5L11 5L11 4ZM28 5L28 8L29 8L29 9L28 9L28 11L29 11L29 9L30 9L30 7L31 7L31 6L30 6L30 7L29 7L29 5ZM6 8L6 9L7 9L7 10L6 10L6 11L7 11L7 12L6 12L6 13L8 13L8 11L10 11L10 10L11 10L11 11L12 11L12 10L11 10L11 8L8 8L8 9L7 9L7 8ZM26 8L26 9L27 9L27 8ZM38 9L38 10L39 10L39 9ZM7 10L7 11L8 11L8 10ZM30 11L30 12L29 12L29 13L27 13L27 14L31 14L31 15L30 15L30 16L32 16L32 12L31 12L31 11ZM23 12L23 13L24 13L24 12ZM0 13L0 16L1 16L1 13ZM24 15L24 16L25 16L25 15ZM2 16L2 17L3 17L3 16ZM7 16L7 17L6 17L6 18L8 18L8 16ZM33 16L33 17L34 17L34 16ZM0 17L0 18L1 18L1 17ZM18 17L18 18L19 18L19 17ZM27 17L27 19L28 19L28 20L27 20L27 21L28 21L28 23L30 23L30 22L33 22L33 21L32 21L32 20L30 20L30 19L28 19L28 17ZM30 17L30 18L31 18L31 17ZM9 18L9 19L10 19L10 18ZM3 21L3 22L2 22L2 23L3 23L3 22L4 22L4 21ZM29 21L29 22L30 22L30 21ZM9 22L9 24L7 24L7 23L6 23L6 24L7 24L7 25L6 25L6 26L5 26L5 25L4 25L4 26L2 26L2 27L3 27L3 28L4 28L4 30L5 30L5 29L6 29L6 28L8 28L8 27L9 27L9 28L13 28L13 27L14 27L14 26L15 26L15 24L14 24L14 26L13 26L13 24L12 24L12 25L11 25L11 24L10 24L10 22ZM24 22L24 23L25 23L25 22ZM31 23L31 24L29 24L29 25L28 25L28 24L27 24L27 26L28 26L28 27L26 27L26 28L28 28L28 27L29 27L29 26L30 26L30 29L31 29L31 28L32 28L32 27L33 27L33 29L34 29L34 27L33 27L33 26L32 26L32 25L33 25L33 23ZM38 23L38 24L40 24L40 23ZM16 24L16 25L17 25L17 24ZM31 24L31 25L30 25L30 26L31 26L31 25L32 25L32 24ZM7 25L7 26L6 26L6 27L7 27L7 26L8 26L8 25ZM10 25L10 26L9 26L9 27L10 27L10 26L11 26L11 25ZM34 25L34 26L35 26L35 25ZM12 26L12 27L13 27L13 26ZM16 27L16 28L17 28L17 27ZM35 27L35 28L36 28L36 29L37 29L37 28L36 28L36 27ZM18 28L18 29L19 29L19 28ZM0 30L0 31L1 31L1 30ZM8 31L8 32L9 32L9 33L8 33L8 34L9 34L9 33L10 33L10 34L11 34L11 36L10 36L10 35L9 35L9 37L8 37L8 41L11 41L11 40L12 40L12 38L13 38L13 39L14 39L14 38L13 38L13 36L15 36L15 33L14 33L14 35L13 35L13 34L12 34L12 33L11 33L11 32L12 32L12 31L11 31L11 32L10 32L10 31ZM20 31L20 32L22 32L22 31ZM33 31L33 32L35 32L35 31ZM23 32L23 33L24 33L24 32ZM17 33L17 34L19 34L19 35L20 35L20 34L21 34L21 33L20 33L20 34L19 34L19 33ZM26 33L26 34L27 34L27 33ZM33 33L33 36L36 36L36 33ZM34 34L34 35L35 35L35 34ZM12 35L12 36L11 36L11 37L12 37L12 36L13 36L13 35ZM17 35L17 36L18 36L18 35ZM31 35L31 37L32 37L32 38L31 38L31 39L32 39L32 38L33 38L33 39L34 39L34 40L35 40L35 37L34 37L34 38L33 38L33 37L32 37L32 35ZM40 35L40 36L41 36L41 35ZM19 36L19 37L20 37L20 36ZM37 36L37 37L38 37L38 36ZM9 38L9 39L10 39L10 40L11 40L11 38ZM25 38L25 40L26 40L26 38ZM13 40L13 41L14 41L14 40ZM0 0L0 7L7 7L7 0ZM1 1L1 6L6 6L6 1ZM2 2L2 5L5 5L5 2ZM34 0L34 7L41 7L41 0ZM35 1L35 6L40 6L40 1ZM36 2L36 5L39 5L39 2ZM0 34L0 41L7 41L7 34ZM1 35L1 40L6 40L6 35ZM2 36L2 39L5 39L5 36Z" fill="#000000"/></g></g></svg>
